<svg width="150" height="66" viewBox="0 0 150 66" fill="none" xmlns="http://www.w3.org/2000/svg">
<path d="M19.1412 0H0V65.9091L16.2037 65.9091V26.2885L31.1756 65.9091H44.2523L59.1294 26.3824V44.1945C59.4706 42.6567 59.9909 41.2295 60.6904 39.913C62.0962 37.3021 64.0443 35.2937 66.5347 33.8879C69.0105 32.5125 71.8322 31.8099 75 31.7801V0H56.2866L37.8087 45.6294L19.1412 0Z" fill="#2E2E3A" fill-opacity="0.08"/>
<path d="M75 37.5635C74.9699 37.5633 74.9398 37.5632 74.9096 37.5632C72.5397 37.5632 70.5113 38.3264 68.8243 39.8527C67.1372 41.3389 66.133 43.3674 65.8117 45.9381H75V37.5635Z" fill="#2E2E3A" fill-opacity="0.08"/>
<path d="M75 51.4812H65.7515C65.9523 54.1322 66.9364 56.2611 68.7038 57.8678C70.4226 59.4304 72.5213 60.2331 75 60.276V51.4812Z" fill="#2E2E3A" fill-opacity="0.08"/>
<path d="M66.6552 63.9531C68.5045 64.9805 70.5254 65.6325 72.7179 65.9091H59.1294V53.5369C59.4804 55.1089 60.0208 56.5726 60.7506 57.928C62.1966 60.4987 64.1648 62.5071 66.6552 63.9531Z" fill="#2E2E3A" fill-opacity="0.08"/>
<path d="M84.9716 63.1699C82.9609 64.6547 80.569 65.5678 77.796 65.9091H90.8706V51.4812H75V60.276C75.07 60.2772 75.1403 60.2778 75.2109 60.2778C78.9063 60.2778 81.5172 58.7314 83.0435 55.6385H90.4544C89.4502 58.6912 87.6226 61.2017 84.9716 63.1699Z" fill="#2E2E3A" fill-opacity="0.04"/>
<path d="M150 65.9091V0H130.953L112.476 45.6294L93.8081 0H75V31.7801C75.0701 31.7794 75.1404 31.7791 75.2109 31.7791C78.3439 31.7791 81.1356 32.4619 83.5858 33.8276C86.036 35.1933 87.9439 37.1213 89.3096 39.6117C90.009 40.8666 90.5294 42.2215 90.8706 43.6765V26.2885L105.842 65.9091H118.919L133.796 26.3824V65.9091H150Z" fill="#2E2E3A" fill-opacity="0.04"/>
<path d="M75 37.5635C77.5711 37.5809 79.73 38.344 81.477 39.8527C83.2443 41.3791 84.1481 43.4075 84.1883 45.9381H75V37.5635Z" fill="#2E2E3A" fill-opacity="0.04"/>
</svg>
