<svg width="955" height="99" viewBox="0 0 955 99" fill="none" xmlns="http://www.w3.org/2000/svg">
<path d="M80.36 13.58L98 0V25.3745C98.6321 11.2443 110.14 0 124.293 0H195.833V17.5H124.293C119.393 17.5 115.333 21.56 115.333 26.6V35.56H178.333V53.06H115.333V71.54C115.333 76.58 119.393 80.64 124.293 80.64H195.833V98.14H124.293C110.14 98.14 98.6321 86.8958 98 72.7655V98.14H80.36V35.7L63.28 48.86L49 59.92L34.58 48.86L17.5 35.7V98.14H0V0L17.5 13.58L49 37.8L80.36 13.58Z" fill="#2E2E3A" fill-opacity="0.08"/>
<path fill-rule="evenodd" clip-rule="evenodd" d="M276.305 13.58L293.945 0V31.1256C301.084 12.939 318.733 0.139998 339.418 0.139998C360.369 0.139998 378.155 13.1361 385.191 31.5451V0H446.931C454.351 0 460.931 3.08 465.691 7.84C470.451 12.6 473.391 19.32 473.391 26.6C473.391 37.24 467.091 46.48 457.851 50.68C455.471 51.8 452.951 52.5 450.291 52.78L464.431 80.5L470.624 92.8856L476.817 80.5L517.837 0L558.857 80.5L562.406 87.4875V0.420003L579.906 13.86L642.766 62.44V0H660.406V0.139998H709.379C736.259 0.139998 758.239 21.98 758.239 49C758.239 61.04 753.899 72.1 746.619 80.64C746.428 80.8622 746.238 81.0916 746.044 81.3249C745.384 82.1207 744.685 82.9622 743.819 83.72C734.999 92.54 722.819 98 709.379 98H660.406V98.14L642.766 84.56L579.906 35.98V98.14H548.217L539.257 80.5L532.093 66.5H503.674L487.597 98.14H453.651L444.691 80.5L435.311 62.16L434.891 61.46C431.951 56.42 426.351 53.06 420.051 53.06H402.551V98.14H385.191V66.6591C378.155 85.0039 360.369 98 339.418 98C318.733 98 301.084 85.201 293.945 67.0772V98.14H276.305V35.7L259.225 48.86L244.945 59.92L230.525 48.86L213.445 35.7V98.14H195.945V0L213.445 13.58L244.945 37.8L276.305 13.58ZM512.316 49.5H523.394L517.837 38.64L512.316 49.5ZM339.418 80.64C356.778 80.64 370.918 66.5 370.918 49C370.918 31.64 356.778 17.5 339.418 17.5C322.058 17.5 307.918 31.64 307.918 49C307.918 66.5 322.058 80.64 339.418 80.64ZM402.551 35.56H446.931C448.191 35.56 449.451 35.28 450.571 34.72C453.931 33.32 455.891 30.1 455.891 26.6C455.891 23.38 454.211 21.14 453.231 20.16C452.111 19.04 450.011 17.5 446.931 17.5H402.551V35.56ZM709.379 80.64C726.599 80.64 740.739 66.5 740.739 49C740.739 31.64 726.599 17.5 709.379 17.5H677.739V80.64H709.379Z" fill="#2E2E3A" fill-opacity="0.08"/>
<path d="M838.852 0H856.352V0.0212188L873.824 13.58L905.324 37.8L936.684 13.58L954.324 0V98.14H936.684V35.7L919.604 48.86L905.324 59.92L890.904 48.86L873.824 35.7V98.14H856.324V50.7886C855.452 77.0484 833.82 98.14 807.352 98.14C780.192 98.14 758.352 76.16 758.352 49.14V0H775.712V49.14C775.712 66.5 789.852 80.64 807.352 80.64C824.712 80.64 838.852 66.5 838.852 49.14V0Z" fill="#2E2E3A" fill-opacity="0.08"/>
<path d="M552 15C552 20.5229 547.523 25 542 25C536.477 25 532 20.5229 532 15C532 9.47716 536.477 5.00001 542 5.00001C547.523 5.00001 552 9.47716 552 15Z" fill="#2E2E3A" fill-opacity="0.08"/>
</svg>
