<svg width="480" height="480" viewBox="0 0 480 480" fill="none" xmlns="http://www.w3.org/2000/svg">
<path d="M232.258 412.848C232.258 412.848 232.268 412.854 240 400L247.732 412.854C242.974 415.716 237.016 415.71 232.258 412.848Z" fill="#FE7F2D"/>
<path d="M232.258 412.848L240 400C247.732 412.854 247.754 412.84 247.754 412.84L247.788 412.82L247.89 412.758L248.234 412.546C248.524 412.368 248.936 412.114 249.458 411.784C250.502 411.126 251.996 410.168 253.874 408.924C257.63 406.434 262.936 402.784 269.274 398.064C281.924 388.64 298.822 374.846 315.77 357.364C349.272 322.806 385 271.706 385 210C385 129.919 320.082 65 240 65C159.919 65 95 129.919 95 210C95 271.706 130.728 322.806 164.23 357.364C181.177 374.846 198.076 388.64 210.726 398.064C217.064 402.784 222.37 406.434 226.126 408.924C228.004 410.168 229.498 411.126 230.542 411.784C231.064 412.114 231.476 412.368 231.766 412.546L232.11 412.758L232.212 412.82L232.258 412.848Z" fill="#FE7F2D"/>
<path d="M240 125C198.579 125 165 158.579 165 200C165 241.422 198.579 275 240 275C281.422 275 315 241.422 315 200C315 158.579 281.422 125 240 125Z" fill="#F5F5F5"/>
</svg>
